HIERARCHY
ROOT pelvis
{
  OFFSET 0 100 0
  CHANNELS 6 Xposition Yposition Zposition Zrotation Xrotation Yrotation
  JOINT pelvis_right_femur
  {
    OFFSET -10.78128 -3.44521 -0.5502486
    CHANNELS 3 Zrotation Xrotation Yrotation
    JOINT right_femur_tibia
    {
      OFFSET -0.8047443 -44.0398 -0.1307829
      CHANNELS 3 Zrotation Xrotation Yrotation
      JOINT right_tibia_foot
      {
        OFFSET 3.006224 -47.83518 -5
        CHANNELS 3 Zrotation Xrotation Yrotation
        End Site
        {
          OFFSET 0 -5 15
        }
      }
    }
  }
  JOINT pelvis_left_femur
  {
    OFFSET 10.78128 -3.44521 -0.5502486
    CHANNELS 3 Zrotation Xrotation Yrotation
    JOINT left_femur_tibia
    {
      OFFSET 0.8047443 -44.0398 -0.1307829
      CHANNELS 3 Zrotation Xrotation Yrotation
      JOINT left_tibia_foot
      {
        OFFSET -4.370144 -48.10324 -4.275266
        CHANNELS 3 Zrotation Xrotation Yrotation
        End Site
        {
          OFFSET 0 -5 15
        }
      }
    }
  }
  JOINT pelvis_spine1
  {
    OFFSET 0 6.468898 -3.129235
    CHANNELS 3 Zrotation Xrotation Yrotation
    JOINT spine1
    {
      OFFSET 0 23.15396 4.99043
      CHANNELS 3 Zrotation Xrotation Yrotation
      JOINT spine2
      {
        OFFSET 0 20.79997 -5.064912
        CHANNELS 3 Zrotation Xrotation Yrotation
        JOINT neck
        {
          OFFSET 0 14.38658 9.616178
          CHANNELS 3 Zrotation Xrotation Yrotation
          End Site
          {
            OFFSET 0 20 0
          }
        }
      }
      JOINT right_manubrium
      {
        OFFSET -5.722621 16.35077 3.967754
        CHANNELS 3 Zrotation Xrotation Yrotation
        JOINT right_clavicle
        {
          OFFSET -13.16364 1.694482 -4.693211
          CHANNELS 3 Zrotation Xrotation Yrotation
          JOINT right_humerus
          {
            OFFSET -28.5034 -0.3100689 -2.792744
            CHANNELS 3 Zrotation Xrotation Yrotation
            JOINT right_radius
            {
              OFFSET -25.15693 0.02248979 -1.271978
              CHANNELS 3 Zrotation Xrotation Yrotation
              End Site
              {
                OFFSET -15 0 0
              }
            }
          }
        }
      }
      JOINT left_manubrium
      {
        OFFSET 5.722621 16.35077 3.967754
        CHANNELS 3 Zrotation Xrotation Yrotation
        JOINT left_clavicle
        {
          OFFSET 13.16364 1.694482 -4.693211
          CHANNELS 3 Zrotation Xrotation Yrotation
          JOINT left_humerus
          {
            OFFSET 29.39168 -1.063119 -2.237045
            CHANNELS 3 Zrotation Xrotation Yrotation
            JOINT left_radius
            {
              OFFSET 24.59957 -0.9528479 0.9047498
              CHANNELS 3 Zrotation Xrotation Yrotation
              End Site
              {
                OFFSET 15 -0 -0
              }
            }
          }
        }
      }
    }
  }
}
MOTION
Frames: 11
Frame Time: 0.0416666666667
202.4763 106.515 3112.845 1.283592 -6.736919 -3.082778 0.01956031 0.7105033 2.879136 -0 52.20665 -0 -1.940031 8.523631 -3.652291 -5.470816 -5.534636 -8.243797 -0 18.66763 -0 -0.2585046 -11.6953 17.77844 1.515353 -1.065075 7.089113 1.057077 15.21175 -7.649597 1.93373 21.21791 -0.0268159 -2.485145 -21.58566 5.133817 -6.325973 -30.52577 12.47604 95.11073 21.17792 -13.23898 -0 0 23.35065 -19.35235 10.771 9.7747 0.3529226 -20.21358 -5.822475 -88.72748 11.0516 31.51991 0 0 -10.97246 10.84673 16.06099 -3.104054
202.9463 107.3728 3118.524 0.9865969 -6.885191 -2.021411 0.3343799 -6.112801 2.279828 -0 50.07951 -0 -2.617 7.506994 -4.372201 -5.376637 -0.7433692 -8.411315 -0 16.2399 -0 -0.07616959 -13.37371 16.95442 1.403041 -0.7686846 6.799701 1.206316 14.78478 -7.843386 1.912344 21.78564 0.4654241 -2.181054 -22.41612 5.549568 -6.964299 -29.73302 12.35421 96.04074 21.18714 -14.46249 -0 0 21.65058 -19.31364 9.237696 8.264338 0.8338351 -20.20868 -5.488893 -88.61368 11.52657 29.76726 0 0 -10.20534 11.89972 15.89567 -5.409468
203.3684 107.6205 3123.941 0.8364766 -6.743467 -1.044722 0.3538607 -12.20166 1.481649 -0 43.4452 -0 -2.971897 5.506757 -4.953767 -5.252905 3.567031 -8.468259 -0 13.68583 -0 -0.4352048 -15.31204 15.98754 1.257711 -0.406964 6.473548 1.37998 14.18006 -8.042672 1.852142 22.40141 1.049121 -1.833458 -23.45867 6.045525 -7.695886 -28.93175 12.17762 96.91649 21.11695 -15.61522 -0 0 20.00484 -19.45195 7.496771 6.596547 1.447192 -20.03745 -4.975647 -88.6614 12.18799 27.96611 0 0 -8.786333 12.981 15.56933 -8.071413
203.7226 107.2286 3129.329 0.8529777 -6.275363 -0.2174185 0.1926157 -17.34199 0.5130078 -0 34.34643 -0 -2.998869 3.553283 -5.36744 -5.206505 7.348461 -8.368727 -0 11.87697 -0 -1.128225 -17.3053 14.91938 1.079273 0.01019924 6.117534 1.567411 13.41089 -8.222183 1.750104 23.05273 1.733431 -1.435994 -24.68769 6.627385 -8.497846 -28.112 11.95107 97.73256 20.99308 -16.67948 -0 0 18.38621 -19.76207 5.612278 4.835569 2.148654 -19.708 -4.324228 -88.86452 13.06204 26.17169 0 0 -6.880455 13.96166 15.04282 -10.87135
203.9949 106.3192 3134.88 0.9654318 -5.570351 0.4427672 0.06807766 -21.51645 -0.4341489 -0 24.86703 -0 -2.750422 2.199857 -5.672289 -5.236661 10.61541 -8.097318 -0 11.37247 -0 -1.941942 -19.07341 13.87078 0.8716922 0.4545159 5.748727 1.758552 12.5363 -8.357364 1.613258 23.7021 2.484508 -1.012486 -26.00588 7.271221 -9.29981 -27.29242 11.6992 98.46822 20.89404 -17.61828 -0 0 16.80343 -20.14437 3.714605 3.11323 2.841602 -19.2563 -3.619228 -89.15039 14.08974 24.48218 0 0 -4.857355 14.7248 14.34826 -13.49602
204.1714 105.095 3140.745 1.087323 -4.794733 0.9479958 0.1859125 -24.68929 -1.084268 -0 16.52063 -0 -2.297659 1.647495 -5.970994 -5.288037 13.3739 -7.671074 -0 12.51577 -0 -2.76001 -20.31697 12.99404 0.650607 0.8697464 5.398101 1.942296 11.67565 -8.43399 1.464694 24.28585 3.216471 -0.6169401 -27.23593 7.909223 -9.990378 -26.52309 11.46655 99.08934 20.91002 -18.39666 -0 0 15.32112 -20.42505 2.001405 1.618872 3.404458 -18.76658 -2.982621 -89.39343 15.10219 23.01482 0 0 -3.238506 15.22325 13.60838 -15.61151
204.2344 103.8005 3147.032 1.133978 -4.145138 1.317998 0.7199632 -26.68342 -1.162056 -0 10.34234 -0 -1.746766 1.857608 -6.35077 -5.271592 15.57009 -7.150142 -0 15.56747 -0 -3.603829 -20.72133 12.40142 0.4443075 1.182799 5.104331 2.104655 10.97784 -8.455973 1.338067 24.73435 3.820347 -0.3102024 -28.17353 8.444116 -10.46062 -25.86381 11.30172 99.56328 21.08201 -19.0099 -0 0 14.03912 -20.4476 0.6832279 0.5326774 3.751466 -18.3619 -2.533388 -89.4717 15.8768 21.85362 0 0 -2.496476 15.50633 12.99158 -16.9935
204.1666 102.705 3153.793 1.028792 -3.804122 1.556707 1.76951 -27.15193 -0.4741426 -0 7.054156 -0 -1.246203 2.521311 -6.834655 -5.077853 17.01864 -6.649525 -0 20.70235 -0 -4.597214 -19.96266 12.12256 0.2849139 1.340927 4.90363 2.226955 10.56046 -8.439886 1.262168 24.99861 4.207988 -0.1362849 -28.677 8.789688 -10.65598 -25.37597 11.23324 99.8713 21.38379 -19.46029 -0 0 13.07116 -20.16675 -0.09691312 -0.03995244 3.861226 -18.14466 -2.339248 -89.33376 16.25127 21.05468 0 0 -2.808506 15.66033 12.62631 -17.58086
203.9659 102.0751 3160.971 0.731443 -3.867235 1.631705 3.241005 -25.71738 0.9492528 -0 6.923955 -0 -0.977599 3.016111 -7.327244 -4.62174 17.33845 -6.314464 -0 27.84771 -0 -5.824918 -17.817 12.10974 0.1974064 1.34477 4.82341 2.286964 10.47079 -8.40102 1.249642 25.06402 4.333931 -0.1168002 -28.72181 8.904698 -10.59618 -25.13301 11.25708 100.0101 21.75351 -19.70658 -0 0 12.54007 -19.66572 -0.310461 -0.08379442 3.750549 -18.13509 -2.39869 -89.0251 16.19969 20.69979 0 0 -3.950436 15.72298 12.54862 -17.42449
203.6633 102.1063 3168.36 0.2933415 -4.270638 1.476275 4.761196 -22.3173 2.729711 -0 9.32841 -0 -1.107388 2.582361 -7.601574 -3.94023 15.99405 -6.230212 -0 36.45461 -0 -7.114576 -14.42892 12.30525 0.1933792 1.246749 4.87935 2.265303 10.68485 -8.345448 1.295991 24.94748 4.191052 -0.2561238 -28.38718 8.796453 -10.35538 -25.217 11.34349 99.97826 22.12343 -19.65146 -0 0 12.57491 -19.1082 -0.03018066 0.3460272 3.446571 -18.25755 -2.650868 -88.66688 15.82131 20.91268 0 0 -5.375963 15.66438 12.7123 -16.63717
203.3224 102.8208 3175.645 -0.1074703 -4.843079 1.039731 5.836301 -17.4937 4.264419 -0 12.56398 -0 -1.67288 0.850522 -7.431667 -3.256544 12.56779 -6.330098 -0 45.41479 -0 -8.000138 -10.58096 12.72982 0.271337 1.112578 5.068159 2.156675 11.12383 -8.277099 1.382923 24.6853 3.805897 -0.5353071 -27.80165 8.502159 -10.02427 -25.67428 11.45429 99.76036 22.40649 -19.20317 -0 0 13.27197 -18.69133 0.6270023 1.139185 3.006478 -18.39433 -2.995731 -88.41034 15.27423 21.77376 0 0 -6.426963 15.44255 13.03676 -15.41424
